<?xml version="1.0" standalone="no"?>
<!DOCTYPE svg PUBLIC "-//W3C//DTD SVG 20010904//EN"
 "http://www.w3.org/TR/2001/REC-SVG-20010904/DTD/svg10.dtd">
<svg version="1.0" xmlns="http://www.w3.org/2000/svg"
 width="1064.000000pt" height="1064.000000pt" viewBox="0 0 1064.000000 1064.000000"
 preserveAspectRatio="xMidYMid meet">
<metadata>
Created by potrace 1.14, written by Peter Selinger 2001-2017
</metadata>
<g transform="translate(0.000000,1064.000000) scale(0.100000,-0.100000)"
fill="#000000" stroke="none">
<path d="M4878 10636 c-1 -2 -32 -6 -68 -10 -84 -8 -139 -15 -170 -23 -14 -3
-32 -7 -40 -8 -14 -1 -89 -17 -100 -20 -3 -1 -23 -5 -45 -10 -22 -4 -44 -10
-50 -14 -5 -3 -14 -6 -20 -7 -21 -3 -130 -37 -140 -42 -5 -4 -16 -7 -22 -8 -7
-1 -43 -14 -80 -28 -38 -14 -75 -26 -83 -28 -8 -2 -18 -7 -21 -11 -3 -5 -12
-10 -20 -11 -8 -1 -27 -9 -44 -16 -16 -7 -57 -25 -90 -39 -153 -66 -561 -282
-585 -311 -3 -3 -27 -19 -55 -35 -27 -15 -52 -31 -55 -35 -3 -4 -25 -20 -50
-35 -39 -24 -59 -38 -115 -83 -6 -5 -24 -17 -40 -28 -17 -10 -32 -21 -35 -24
-3 -3 -30 -25 -60 -48 -49 -38 -72 -57 -154 -125 -97 -80 -356 -332 -411 -398
-11 -13 -41 -49 -66 -79 -61 -73 -142 -194 -167 -251 -33 -71 -20 -100 45
-104 21 -1 38 -3 38 -5 0 -1 14 -3 30 -4 43 -4 146 -16 170 -20 11 -2 54 -7
95 -12 41 -4 78 -9 83 -10 4 -1 16 -2 27 -3 27 -1 25 -11 -10 -71 -16 -28 -30
-57 -30 -65 0 -7 -3 -15 -7 -17 -5 -1 -24 -23 -44 -48 -21 -25 -50 -59 -65
-77 -16 -18 -40 -47 -54 -65 -14 -17 -51 -64 -84 -102 -32 -39 -66 -82 -75
-96 -9 -14 -21 -29 -26 -35 -19 -18 -85 -103 -85 -110 0 -3 -7 -13 -16 -22
-15 -15 -201 -276 -259 -363 -16 -25 -34 -48 -40 -52 -7 -5 -7 -8 0 -8 7 0 7
-3 0 -8 -12 -8 -55 -69 -55 -77 0 -3 -15 -27 -33 -53 -19 -26 -36 -52 -38 -57
-2 -6 -26 -47 -54 -93 -27 -46 -59 -100 -71 -120 -11 -20 -32 -58 -47 -83 -48
-86 -79 -144 -134 -253 -59 -119 -153 -322 -153 -331 0 -3 -10 -27 -22 -53
-47 -103 -157 -432 -160 -479 -1 -7 -5 -13 -9 -13 -4 0 -6 -7 -5 -16 1 -9 -6
-46 -16 -83 -11 -36 -21 -75 -22 -86 -2 -11 -6 -35 -10 -53 -11 -47 -17 -83
-19 -109 -1 -13 -5 -23 -8 -23 -3 0 -6 -6 -6 -12 -1 -12 -3 -24 -18 -98 -3
-14 -8 -41 -11 -60 -3 -19 -10 -48 -14 -65 -5 -16 -11 -46 -14 -65 -3 -19 -11
-60 -17 -90 -7 -30 -13 -66 -15 -80 -1 -14 -3 -26 -4 -27 -1 -2 -4 -12 -5 -23
-1 -11 -4 -21 -5 -22 -1 -2 -3 -14 -5 -28 -2 -23 -5 -40 -19 -120 -3 -14 -7
-43 -11 -64 -3 -21 -8 -48 -10 -60 -3 -12 -7 -39 -9 -61 -3 -22 -7 -49 -9 -60
-3 -11 -8 -46 -12 -79 -3 -32 -8 -68 -10 -80 -2 -11 -7 -50 -10 -86 -3 -36 -8
-81 -10 -100 -21 -184 -28 -663 -11 -840 5 -52 10 -111 12 -130 1 -19 3 -35 4
-35 1 0 3 -16 5 -35 2 -19 6 -48 10 -65 3 -16 8 -46 11 -65 8 -53 12 -73 18
-100 4 -14 9 -38 12 -55 3 -16 9 -48 15 -70 5 -22 11 -48 14 -58 2 -9 11 -45
21 -80 9 -34 16 -68 17 -74 0 -7 3 -13 7 -13 3 0 6 -8 7 -17 1 -10 16 -63 34
-118 18 -55 33 -102 34 -105 2 -6 8 -23 50 -135 35 -97 41 -115 44 -130 1 -5
9 -20 17 -32 8 -13 12 -23 9 -23 -4 0 0 -12 9 -27 8 -16 29 -64 47 -108 18
-44 37 -84 41 -89 4 -6 8 -18 8 -28 0 -10 5 -18 12 -18 6 0 9 -3 5 -6 -3 -3 6
-27 19 -54 13 -26 24 -51 24 -55 0 -9 222 -456 266 -535 20 -36 54 -99 76
-140 23 -41 56 -99 75 -128 18 -29 33 -55 33 -58 0 -2 8 -17 18 -32 11 -15 30
-45 44 -67 81 -128 134 -205 140 -205 5 0 8 -4 8 -10 0 -15 84 -128 138 -185
12 -13 22 -28 22 -34 0 -5 4 -11 10 -13 5 -2 31 -24 58 -50 44 -42 95 -74 172
-108 14 -5 39 -18 55 -28 102 -62 302 -155 323 -150 4 1 18 -2 32 -5 164 -43
520 -44 785 -1 17 2 44 7 60 9 36 5 104 16 126 20 17 3 77 14 114 20 11 2 30
6 41 9 12 2 37 7 55 10 35 6 65 12 109 21 14 3 36 8 50 11 14 3 41 7 60 10 34
5 50 7 100 18 25 6 125 25 170 32 14 3 48 9 75 14 28 6 70 13 95 16 25 3 63 8
85 11 79 11 635 5 635 -7 0 -3 17 -5 38 -6 34 -1 131 -10 207 -20 17 -2 57 -6
90 -10 33 -3 71 -7 84 -9 40 -7 282 -18 371 -18 81 0 236 10 290 18 14 2 43 6
65 9 22 3 63 10 90 16 28 5 61 12 75 15 14 2 55 10 92 18 37 8 70 12 73 9 3
-3 5 -1 5 4 0 5 17 10 38 11 20 1 55 5 77 7 56 8 193 15 385 21 270 9 392 17
560 40 70 9 89 12 120 19 14 3 48 10 75 16 82 17 88 19 185 51 51 16 121 43
155 58 164 75 405 277 640 536 44 49 88 97 98 107 48 51 236 295 301 392 108
162 160 265 206 408 23 70 41 130 40 133 0 3 6 18 14 34 9 16 12 31 9 35 -4 3
-2 6 4 6 5 0 10 6 10 13 0 11 9 31 66 157 12 25 37 68 56 97 19 29 36 58 37
65 1 7 8 27 14 43 7 17 14 44 17 60 2 17 8 31 13 33 5 2 7 9 4 17 -3 7 0 32 6
54 6 23 13 58 16 78 2 20 7 50 10 67 6 33 9 54 18 125 3 24 8 60 11 80 3 20 8
61 11 91 3 30 7 69 8 85 28 268 28 509 1 633 -3 12 -7 30 -9 40 -4 18 -24 132
-30 172 -3 14 -5 25 -7 25 -1 0 -3 9 -4 20 -3 25 -26 163 -32 190 -2 11 -6 31
-9 45 -3 14 -7 43 -9 65 -2 22 -4 40 -5 40 -6 0 -21 130 -24 215 -2 49 3 81
20 129 41 109 21 215 -76 416 -26 55 -76 147 -110 205 -77 132 -84 144 -91
150 -3 3 -9 12 -12 20 -4 8 -25 42 -47 75 -22 33 -43 68 -46 78 -4 9 -10 17
-15 17 -5 0 -9 7 -9 15 0 8 -4 15 -10 15 -5 0 -10 5 -10 10 0 6 -27 51 -60
100 -33 49 -60 94 -60 99 0 5 -3 11 -7 13 -11 5 -73 97 -73 108 0 6 -4 10 -10
10 -5 0 -10 7 -10 15 0 8 -4 15 -10 15 -5 0 -10 4 -10 10 0 9 -58 99 -71 110
-3 3 -16 24 -29 48 -13 23 -27 42 -32 42 -4 0 -8 5 -8 10 0 6 -17 34 -37 63
-21 29 -42 60 -48 69 -5 9 -44 65 -85 123 -41 58 -79 114 -85 123 -5 9 -12 19
-15 22 -3 3 -35 46 -70 95 -35 50 -68 92 -72 93 -4 2 -8 10 -8 18 0 8 -3 14
-7 14 -5 0 -19 17 -33 37 -14 21 -30 45 -37 53 -201 253 -217 272 -309 364
-92 92 -122 114 -161 122 -29 5 -34 11 -48 59 -7 24 -49 116 -84 185 -25 50
-37 85 -35 105 2 17 6 48 8 71 6 50 34 133 49 149 29 29 67 45 117 51 96 11
120 29 146 114 13 41 21 193 12 232 -7 29 -39 57 -87 74 -25 10 -52 22 -58 27
-7 5 -13 6 -13 2 0 -4 -7 -2 -15 5 -8 7 -15 10 -15 6 0 -3 -12 -1 -27 5 -16 6
-39 13 -52 15 -14 3 -56 14 -95 24 -67 18 -87 23 -153 35 -24 4 -51 11 -85 20
-5 2 -16 3 -27 4 -17 1 -49 55 -43 74 1 4 -3 7 -10 7 -6 0 -9 3 -5 6 8 8 -217
453 -293 579 -33 55 -60 106 -60 113 0 6 -4 12 -10 12 -5 0 -10 7 -10 15 0 8
-4 15 -10 15 -5 0 -10 7 -10 15 0 8 -4 15 -10 15 -5 0 -10 6 -10 13 0 7 -13
28 -30 47 -16 19 -29 39 -30 44 0 9 -48 72 -95 125 -55 62 -172 168 -254 231
-17 14 -42 33 -54 43 -54 46 -282 190 -387 245 -107 56 -269 132 -294 136 -6
2 -27 9 -46 18 -31 13 -81 29 -230 73 -67 20 -140 36 -184 41 -22 3 -43 7 -46
9 -4 2 -32 7 -64 10 -31 4 -67 9 -79 12 -24 5 -433 14 -439 9z m2695 -2138
c61 -32 139 -139 152 -208 2 -11 6 -24 10 -29 3 -6 8 -47 11 -93 3 -46 7 -90
9 -98 5 -15 -1 -8 -90 109 -27 36 -54 71 -60 77 -5 6 -26 31 -46 55 -21 24
-64 72 -98 107 -34 35 -59 67 -57 71 3 4 26 8 53 10 26 1 49 4 52 7 8 8 42 4
64 -8z"/>
</g>
</svg>
